<?xml version="1.0" standalone="no"?><!DOCTYPE svg PUBLIC "-//W3C//DTD SVG 1.1//EN" "http://www.w3.org/Graphics/SVG/1.1/DTD/svg11.dtd"><svg t="1596623586240" class="icon" viewBox="0 0 1092 1024" version="1.1" xmlns="http://www.w3.org/2000/svg" p-id="9509" xmlns:xlink="http://www.w3.org/1999/xlink" width="213.28125" height="200"><defs><style type="text/css"></style></defs><path d="M551.303104 577.143932l28.875259 28.128693-18.543744 18.519661s-13.534525 14.232926 4.094073 32.415428l145.098777 144.207714s13.871684 12.474882 29.188335 1.782126l72.657761-70.514393s12.812041-17.074694-4.286735-32.728504l-143.846473-142.449671s-15.677893-15.340734-33.113828-2.143368l-18.880903 19.218062-30.272061-29.910818-30.970461 33.47507zM531.362559 494.178739l-155.622954-153.479586v-47.346754l-91.85174-54.499342L238.419567 282.996802l55.43857 88.335653 48.791722 0.337159 153.479586 150.99906 35.233114-28.489935z" p-id="9510"></path><path d="M280.323612 752.34619s0-23.504798 24.564441-23.504798c0 0 22.083913 0.698401 22.782314 23.504798 0 0-0.698401 21.36143-23.673377 22.782314l-20.470367 20.32587s29.910818 27.743368 63.747131 0l277.385512-297.350141s30.27206 20.277705 75.836689 19.916463c0 0 55.703481 2.143368 99.341486-35.835183 0 0 85.204892-66.805644 41.542804-171.397178l-99.221073 95.921731-84.048918-83.085607 99.221072-94.934337s-63.145061-37.039323-148.59078 16.617122c0 0-44.143744 30.850047-57.461524 86.384948 0 0-19.940546 65.98683 24.684854 125.350894L264.067733 712.946754s-19.482973 18.977234-9.970273 47.009596l26.226152-7.61016z" p-id="9511"></path><path d="M280.323612 752.34619s1.90254 22.300659 23.673378 22.782314l-20.470367 20.32587s-26.924553-23.143556-29.429163-35.498024l26.226152-7.61016z" p-id="9512"></path></svg>