<?xml version="1.0" standalone="no"?><!DOCTYPE svg PUBLIC "-//W3C//DTD SVG 1.1//EN" "http://www.w3.org/Graphics/SVG/1.1/DTD/svg11.dtd"><svg t="1590817821722" class="icon" viewBox="0 0 1024 1024" version="1.1" xmlns="http://www.w3.org/2000/svg" p-id="7914" xmlns:xlink="http://www.w3.org/1999/xlink" width="200" height="200"><defs><style type="text/css"></style></defs><path d="M793.6 232.96c14.848 14.848 14.848 40.96 0 55.808l-509.44 502.272c-15.36 14.848-41.472 14.848-56.832 0-14.848-14.848-14.848-40.96 0-55.808L737.28 232.96c14.848-14.848 41.472-14.848 56.32 0z" p-id="7915"></path><path d="M236.544 240.64c14.848-14.336 40.448-14.336 54.784 0l494.592 486.912c14.848 14.336 14.848 39.936 0 54.272s-40.448 14.336-54.784 0L236.544 294.912c-14.848-14.336-14.848-39.424 0-54.272z" p-id="7916"></path></svg>