<?xml version="1.0" standalone="no"?><!DOCTYPE svg PUBLIC "-//W3C//DTD SVG 1.1//EN" "http://www.w3.org/Graphics/SVG/1.1/DTD/svg11.dtd"><svg t="1596621775720" class="icon" viewBox="0 0 1024 1024" version="1.1" xmlns="http://www.w3.org/2000/svg" p-id="1155" xmlns:xlink="http://www.w3.org/1999/xlink" width="200" height="200"><defs><style type="text/css"></style></defs><path d="M769.749333 810.666667v42.666666H256.853333v-42.666666h512.896z m-235.093333-424.832v268.245333l116.693333-116.48 30.165334 30.208-169.216 168.96-167.253334-169.045333 30.336-29.994667 116.608 117.845333V385.834667h42.666667z m-13.653333-172.544c80.981333 0 147.328 62.634667 151.893333 141.354666h29.866667c83.072 0 153.258667 70.997333 153.258666 155.093334 0.853333 41.813333-24.192 128.085333-125.610666 151.552l-9.642667-41.557334a112.298667 112.298667 0 0 0 92.586667-109.525333c0-61.397333-50.645333-112.896-110.549334-112.896h-72.277333v-34.005333C630.528 304.128 581.376 256 520.96 256c-57.6 0-101.632 37.290667-107.136 90.666667v21.333333H370.56c-36.138667 0-65.493333 31.658667-65.493333 70.613333 0 4.949333 0.426667 9.813333 1.365333 14.506667l5.376 27.562667-34.730667-2.816C242.730667 477.909333 213.333333 509.610667 213.333333 548.565333c0 38.954667 29.397333 70.613333 65.493334 70.613334h19.925333v42.666666h-19.925333C219.221333 661.845333 170.666667 611.072 170.666667 548.565333c0-56.618667 39.893333-103.68 91.733333-112.042666 1.024-61.525333 49.152-111.274667 108.16-111.274667h3.626667C388.992 259.456 448.170667 213.333333 520.96 213.333333z" p-id="1156"></path></svg>