<svg xmlns="http://www.w3.org/2000/svg" xmlns:xlink="http://www.w3.org/1999/xlink" viewBox="0 0 16 16" version="1.1" fill="#000"><g id="surface1" fill="#000"><path d="M 2.5 1 C 1.675781 1 1 1.675781 1 2.5 L 1 12.5 C 1 13.324219 1.675781 14 2.5 14 L 12.5 14 C 13.324219 14 14 13.324219 14 12.5 L 14 10 L 13 11 L 13 12.5 C 13 12.78125 12.78125 13 12.5 13 L 2.5 13 C 2.21875 13 2 12.78125 2 12.5 L 2 2.5 C 2 2.21875 2.21875 2 2.5 2 L 12.5 2 C 12.78125 2 13 2.21875 13 2.5 L 13 4 L 14 5 L 14 2.5 C 14 1.675781 13.324219 1 12.5 1 Z M 10.730469 4.023438 L 10.019531 4.726563 L 12.292969 7 L 5 7 L 5 8 L 12.292969 8 L 10.019531 10.269531 L 10.730469 10.980469 L 14.207031 7.5 Z" fill="#000"/></g></svg>