<svg height="200" viewBox="0 0 1024 1024" width="200" xmlns="http://www.w3.org/2000/svg"><path d="m511.7 191.8c-175.6 0-319.2 143.6-319.2 319.2s143.6 319.2 319.2 319.2 319.3-143.6 319.3-319.2-141.7-319.2-319.3-319.2zm0 478.8c-18 0-33.9-16-33.9-33.9 0-18 14-33.9 33.9-33.9 18 0 33.9 16 33.9 33.9.1 17.9-15.9 33.9-33.9 33.9zm91.8-213.5c-4 8-10 16-16 21.9-6 6-18 18-33.9 31.9-4 4-8 8-10 12s-4 6-6 8-2 6-4 8c0 2-2 8-4 14-2 14-10 21.9-23.9 21.9-6 0-12-2-18-6-4-4-8-12-8-20 0-12 2-21.9 6-29.9s8-16 14-21.9l21.9-21.9 18-18c4-4 6-8 10-14 2-4 4-10 4-16 0-10-4-19.9-12-27.9s-18-12-29.9-12c-14 0-25.9 4-31.9 12s-12 18-18 33.9c-4 16-14 23.9-25.9 23.9-8 0-14-2-18-8s-6-12-6-18c0-14 4-25.9 12-39.9s19.9-23.9 35.9-33.9c16-8 33.9-14 53.9-14s35.9 4 49.9 10c14 8 25.9 18 33.9 29.9 8 12 12 25.9 12 41.9 0 12.2-2 24.1-6 32.1zm0 0" fill="#b3b3b3"/></svg>