<?xml version="1.0" encoding="utf-8"?>
<!-- Generator: Adobe Illustrator 24.0.3, SVG Export Plug-In . SVG Version: 6.00 Build 0)  -->
<svg version="1.1" id="Layer_1" xmlns="http://www.w3.org/2000/svg" xmlns:xlink="http://www.w3.org/1999/xlink" x="0px" y="0px"
	 viewBox="0 0 200 200" style="enable-background:new 0 0 200 200;" xml:space="preserve">
<style type="text/css">
	.st0{fill:#BEBEBE;}
</style>
<path class="st0" d="M32.1,70.6c0-3.1,1.2-6,3.4-8.1c4.5-4.3,11.6-4.2,15.9,0.3l48.9,50.7l48.2-50.9c4.3-4.5,11.4-4.7,15.9-0.4
	c2.2,2.1,3.5,5.1,3.5,8.2c0,2.9-1.1,5.6-3.1,7.7l-56.2,59.4c-3.3,3.5-8.5,4.4-13,2.3c-0.3-0.2-0.6-0.3-0.7-0.4
	c-0.1,0-0.2-0.1-0.3-0.1c-0.5-0.3-1.2-0.7-1.9-1.3l0,0c0,0-0.1-0.1-0.1-0.1c-0.2-0.1-0.4-0.3-0.5-0.4L35.2,78.4
	C33.2,76.3,32.1,73.5,32.1,70.6L32.1,70.6z"/>
</svg>
