<?xml version="1.0" encoding="utf-8"?>
<!-- Generator: Adobe Illustrator 24.0.3, SVG Export Plug-In . SVG Version: 6.00 Build 0)  -->
<svg version="1.2" baseProfile="tiny" id="Layer_1" xmlns="http://www.w3.org/2000/svg" xmlns:xlink="http://www.w3.org/1999/xlink"
	 x="0px" y="0px" viewBox="0 0 200 200" xml:space="preserve">
<path fill="#BEBEBE" d="M167.8,129.7c0,3.1-1.2,6-3.5,8.1c-4.5,4.3-11.6,4.1-15.9-0.4L99.7,86.5l-48.4,50.8
	c-4.3,4.5-11.4,4.7-15.9,0.4c-2.2-2.1-3.5-5.1-3.5-8.2c0-2.9,1.1-5.6,3.1-7.7l56.4-59.2c3.3-3.5,8.5-4.4,13-2.3
	c0.3,0.2,0.6,0.3,0.7,0.4c0.1,0.1,0.2,0.1,0.3,0.1c0.5,0.3,1.2,0.7,1.9,1.3l0,0c0,0,0.1,0.1,0.1,0.1c0.2,0.1,0.4,0.3,0.5,0.4
	l56.6,59.1C166.7,124,167.8,126.8,167.8,129.7L167.8,129.7z"/>
</svg>
