<?xml version="1.0" standalone="no"?><!DOCTYPE svg PUBLIC "-//W3C//DTD SVG 1.1//EN" "http://www.w3.org/Graphics/SVG/1.1/DTD/svg11.dtd"><svg t="1594086669718" class="icon" viewBox="0 0 1024 1024" version="1.1" xmlns="http://www.w3.org/2000/svg" p-id="2961" xmlns:xlink="http://www.w3.org/1999/xlink" width="200" height="200"><defs><style type="text/css"></style></defs><path d="M164.385 361.366c0-15.793 6.255-30.502 17.606-41.418 22.813-21.967 59.274-21.291 81.271 1.512l250.406 259.796L760.348 320.5c21.796-23.016 58.255-24.034 81.29-2.268 11.425 10.837 17.975 26.076 17.975 41.799 0 14.747-5.576 28.771-15.709 39.492L556.077 703.834c-16.939 17.94-43.603 22.701-66.333 11.842-1.705-0.781-3.015-1.693-3.761-2.231a65.89 65.89 0 0 0-1.399-0.748c-2.742-1.45-6.385-3.373-9.855-6.687l-0.225-0.218c-0.209-0.203-0.397-0.404-0.573-0.59a19.821 19.821 0 0 1-2.609-2.175L180.479 401.268c-10.382-10.795-16.096-24.962-16.096-39.901z" p-id="2962" fill="#333333"></path></svg>