<?xml version="1.0" encoding="utf-8"?>
<!-- Generator: Adobe Illustrator 24.0.3, SVG Export Plug-In . SVG Version: 6.00 Build 0)  -->
<svg version="1.1" id="Layer_1" xmlns="http://www.w3.org/2000/svg" xmlns:xlink="http://www.w3.org/1999/xlink" x="0px" y="0px"
	 viewBox="0 0 200 200" style="enable-background:new 0 0 200 200;" xml:space="preserve">
<style type="text/css">
	.st0{fill:#333333;}
</style>
<path class="st0" d="M167.9,129.5c0,3.1-1.2,6-3.4,8.1c-4.5,4.3-11.6,4.2-15.9-0.3L99.7,86.5l-48.2,50.9c-4.3,4.5-11.4,4.7-15.9,0.4
	c-2.2-2.1-3.5-5.1-3.5-8.2c0-2.9,1.1-5.6,3.1-7.7l56.3-59.4c3.3-3.5,8.5-4.4,13-2.3c0.3,0.2,0.6,0.3,0.7,0.4c0.1,0,0.2,0.1,0.3,0.1
	c0.5,0.3,1.2,0.7,1.9,1.3l0,0c0,0,0.1,0.1,0.1,0.1c0.2,0.1,0.4,0.3,0.5,0.4l56.8,59C166.8,123.8,167.9,126.5,167.9,129.5
	L167.9,129.5z"/>
</svg>
