<?xml version="1.0" standalone="no"?><!DOCTYPE svg PUBLIC "-//W3C//DTD SVG 1.1//EN" "http://www.w3.org/Graphics/SVG/1.1/DTD/svg11.dtd"><svg t="1583981700660" class="icon" viewBox="0 0 1024 1024" version="1.1" xmlns="http://www.w3.org/2000/svg" p-id="1291" xmlns:xlink="http://www.w3.org/1999/xlink" width="200" height="200"><defs><style type="text/css"></style></defs><path d="M700.1 301.5c-10.7-8.8-26.6-7.2-35.4 3.5-8.8 10.7-7.2 26.6 3.5 35.4 57.1 47 89.9 116.3 89.9 190.1 0 135.7-110.4 246-246 246s-246-110.4-246-246c0-73.9 32.8-143.2 89.9-190.1 10.7-8.8 12.2-24.7 3.4-35.4-8.8-10.7-24.7-12.2-35.4-3.4-68.8 56.6-108.2 140-108.2 229 0 163.4 132.9 296.3 296.3 296.3S808.4 694 808.4 530.6c-0.1-89.1-39.5-172.5-108.3-229.1z" p-id="1292" fill="#ffffff"></path><path d="M512 470.7c13.9 0 25.2-11.3 25.2-25.2V222.3c0-13.9-11.3-25.2-25.2-25.2s-25.2 11.3-25.2 25.2v223.2c0 13.9 11.3 25.2 25.2 25.2z" p-id="1293" fill="#ffffff"></path></svg>