<?xml version="1.0" standalone="no"?><!DOCTYPE svg PUBLIC "-//W3C//DTD SVG 1.1//EN" "http://www.w3.org/Graphics/SVG/1.1/DTD/svg11.dtd"><svg t="1581585892463" class="icon" viewBox="0 0 1024 1024" version="1.1" xmlns="http://www.w3.org/2000/svg" p-id="3715" xmlns:xlink="http://www.w3.org/1999/xlink" width="200" height="200"><defs><style type="text/css"></style></defs><path d="M438.0672 694.272c-7.7824 0-15.7696-3.072-21.7088-9.0112-12.0832-12.0832-12.0832-31.5392 0-43.4176L716.1856 342.016c12.0832-12.0832 31.5392-12.0832 43.4176 0 12.0832 12.0832 12.0832 31.5392 0 43.4176L459.776 685.2608c-5.9392 5.9392-13.7216 9.0112-21.7088 9.0112z" p-id="3716"></path><path d="M438.0672 694.272c-7.7824 0-15.7696-3.072-21.7088-9.0112l-149.9136-149.9136c-12.0832-12.0832-12.0832-31.5392 0-43.4176 12.0832-12.0832 31.5392-12.0832 43.4176 0l149.9136 149.9136c12.0832 12.0832 12.0832 31.5392 0 43.4176-5.9392 5.9392-13.7216 9.0112-21.7088 9.0112z" p-id="3717"></path></svg>