<svg xmlns="http://www.w3.org/2000/svg" xmlns:xlink="http://www.w3.org/1999/xlink" viewBox="0 0 16 16" version="1.1" fill="#000"><g id="surface1" fill="#000"><path d="M 2.5 2 C 1.675781 2 1 2.675781 1 3.5 L 1 11.5 C 1 12.324219 1.675781 13 2.5 13 L 4 13 L 4 15.433594 L 7.652344 13 L 12.5 13 C 13.324219 13 14 12.324219 14 11.5 L 14 3.5 C 14 2.675781 13.324219 2 12.5 2 Z M 2.5 3 L 12.5 3 C 12.78125 3 13 3.21875 13 3.5 L 13 11.5 C 13 11.78125 12.78125 12 12.5 12 L 7.347656 12 L 5 13.566406 L 5 12 L 2.5 12 C 2.21875 12 2 11.78125 2 11.5 L 2 3.5 C 2 3.21875 2.21875 3 2.5 3 Z M 7 4 L 7 5 L 8 5 L 8 4 Z M 7 6 L 7 11 L 8 11 L 8 6 Z" fill="#000"/></g></svg>