<?xml version="1.0" standalone="no"?><!DOCTYPE svg PUBLIC "-//W3C//DTD SVG 1.1//EN" "http://www.w3.org/Graphics/SVG/1.1/DTD/svg11.dtd"><svg t="1580873685919" class="icon" viewBox="0 0 1024 1024" version="1.1" xmlns="http://www.w3.org/2000/svg" p-id="2962" xmlns:xlink="http://www.w3.org/1999/xlink" width="200" height="200"><defs><style type="text/css"></style></defs><path d="M844.617493 320.009338a384.730385 384.730385 0 0 0-30.014594-44.413536c-72.372308-92.496647-182.910866-147.577127-302.602899-147.577127-212.066907 0-383.981325 171.914418-383.981325 383.981325s171.914418 383.981325 383.981325 383.981325c156.391886 0 295.340495-94.355995 354.539782-236.242516 6.804986-16.309454 25.542746-24.01495 41.8522-17.209964 16.309454 6.804986 24.01495 25.542746 17.209964 41.852201-69.059865 165.518754-231.1618 275.596825-413.601946 275.596825-247.411903 0-447.978894-200.566992-447.978894-447.978894S264.588097 64.021106 512 64.021106c139.588175 0 268.630157 64.300468 353.005846 172.137498a448.801632 448.801632 0 0 1 30.975479 44.975331V96.019891c0-17.672498 14.326287-31.998785 31.998784-31.998785s31.998785 14.326287 31.998785 31.998785v255.987208c0 8.836249-3.581572 16.835434-9.372461 22.626324-5.79089 5.79089-13.790074 9.372461-22.626324 9.372461H671.991878c-17.672498 0-31.998785-14.326287-31.998785-31.998785s14.326287-31.998785 31.998785-31.998785h172.625615z" p-id="2963"></path></svg>